<?xml version="1.0" encoding="utf-8"?>
<!-- Generator: Adobe Illustrator 15.0.0, SVG Export Plug-In . SVG Version: 6.00 Build 0)  -->
<!DOCTYPE svg PUBLIC "-//W3C//DTD SVG 1.1//EN" "http://www.w3.org/Graphics/SVG/1.1/DTD/svg11.dtd">
<svg version="1.1" id="Слой_1" xmlns="http://www.w3.org/2000/svg" xmlns:xlink="http://www.w3.org/1999/xlink" x="0px" y="0px"
	 width="607px" height="383px" xml:space="preserve">
<polygon id="zone_1" opacity="0.6" fill="#993333" stroke="#FFFFFF" enable-background="new    " points="48.729,0 0,0 0,131.338 
	59.561,131.338 59.561,131.297 59.561,0 "/>
<path id="zone_2" opacity="0.6" fill="#993333" stroke="#FFFFFF" enable-background="new    " d="M121.4,62.579
	c0-21.992,3.925-43.071,11.112-62.579H59.561v131.297c8.328,23.44,19.956,45.321,34.333,65.09l51.813-43.15
	C130.249,126.56,121.4,95.6,121.4,62.579z"/>
<path id="zone_3" opacity="0.6" fill="#993333" stroke="#FFFFFF" enable-background="new    " d="M145.707,153.237
	c15.323,26.443,37.142,48.677,63.284,64.531l44.917-77.267c-25.833-16.371-42.976-45.149-42.976-77.923
	c0-24.151,9.312-46.132,24.548-62.579H132.513c-7.188,19.508-11.113,40.587-11.113,62.58C121.4,95.6,130.249,126.56,145.707,153.237
	"/>
<path id="zone_5" opacity="0.6" fill="#669933" stroke="#FFFFFF" enable-background="new    " d="M461.293,153.237
	c-15.323,26.443-37.142,48.677-63.284,64.531l-44.917-77.267c25.833-16.371,42.977-45.149,42.977-77.923
	c0-24.151-9.312-46.132-24.549-62.579h102.969c7.188,19.507,11.111,40.586,11.111,62.579C485.6,95.6,476.751,126.56,461.293,153.237
	"/>
<path id="zone_6" opacity="0.6" fill="#669933" stroke="#FFFFFF" enable-background="new    " d="M485.6,62.579
	c0-21.992-3.925-43.071-11.111-62.579h72.952v131.297c-8.328,23.44-19.956,45.321-34.333,65.09l-51.813-43.15
	C476.751,126.56,485.6,95.6,485.6,62.579z"/>
<polygon id="zone_7" opacity="0.6" fill="#993333" stroke="#FFFFFF" enable-background="new    " points="558.271,0 607,0 
	607,131.338 547.439,131.338 547.439,131.297 547.439,0 "/>
<path id="zone_8" opacity="0.6" fill="#993333" stroke="#FFFFFF" enable-background="new    " d="M208.991,217.768L208.991,217.768
	L208.991,217.768c-26.143-15.854-47.961-38.087-63.284-64.531l-51.813,43.15c32.28,44.387,78.389,78.121,132.035,94.906
	l18.497-56.967C231.948,230.062,220.079,224.492,208.991,217.768z"/>
<path id="zone_9" opacity="0.6" fill="#993333" stroke="#FFFFFF" enable-background="new    " d="M353.092,140.501
	c-14.335,9.084-31.347,14.35-49.592,14.35s-35.257-5.266-49.592-14.35l-44.917,77.267c11.088,6.725,22.957,12.295,35.435,16.56
	c18.524,6.329,38.396,9.772,59.074,9.772c20.678,0,40.55-3.443,59.074-9.772c12.478-4.265,24.347-9.835,35.435-16.56
	L353.092,140.501z"/>
<path id="zone_10" opacity="0.6" fill="#993333" stroke="#FFFFFF" enable-background="new    " d="M362.574,234.327
	c-18.524,6.329-38.396,9.772-59.074,9.772c-20.678,0-40.55-3.443-59.074-9.772l-18.497,56.967c24.49,7.662,50.545,11.8,77.571,11.8
	c27.025,0,53.081-4.138,77.57-11.8L362.574,234.327z"/>
<path id="zone_11" opacity="0.6" fill="#669933" stroke="#FFFFFF" enable-background="new    " d="M398.009,217.768L398.009,217.768
	L398.009,217.768c26.144-15.854,47.961-38.087,63.284-64.531l51.813,43.15c-32.28,44.387-78.391,78.121-132.036,94.906
	l-18.496-56.967C375.052,230.062,386.921,224.492,398.009,217.768z"/>
<path id="zone_12" opacity="0.6" fill="#993333" stroke="#FFFFFF" enable-background="new    " d="M93.894,196.387
	c-14.377-19.769-26.005-41.649-34.333-65.09v0.041H0V383h196.153l29.775-91.707C172.283,274.508,126.174,240.773,93.894,196.387"/>
<path id="zone_13" opacity="0.6" fill="#993333" stroke="#FFFFFF" enable-background="new    " d="M381.07,291.293
	c-24.489,7.662-50.545,11.8-77.57,11.8c-27.026,0-53.081-4.138-77.571-11.8L196.153,383H303.5h107.348L381.07,291.293z"/>
<path id="zone_14" opacity="0.6" fill="#993333" stroke="#FFFFFF" enable-background="new    " d="M513.106,196.387
	c14.377-19.769,26.005-41.649,34.333-65.09v0.041H607V383H410.848l-29.775-91.707C434.717,274.508,480.826,240.773,513.106,196.387"
	/>
<path id="zone_4" opacity="0.6" fill="#669933" stroke="#FFFFFF" enable-background="new    " d="M371.52,0H303.5h-68.02
	c-15.235,16.446-24.548,38.427-24.548,62.579c0,32.773,17.143,61.552,42.976,77.923c14.335,9.084,31.347,14.35,49.592,14.35
	s35.257-5.266,49.592-14.35c25.833-16.371,42.977-45.149,42.977-77.923C396.066,38.427,386.755,16.446,371.52,0z"/>
</svg>
